<svg width="384" height="384" viewBox="0 0 384 384" fill="none" xmlns="http://www.w3.org/2000/svg">
<path d="M192 382C296.934 382 382 296.934 382 192C382 87.0659 296.934 2 192 2C87.0659 2 2 87.0659 2 192C2 296.934 87.0659 382 192 382Z" fill="white" stroke="#00406B" stroke-width="4"/>
<path d="M372 192C372 291.411 291.411 372 192 372C92.5888 372 12 291.411 12 192C12 92.5888 92.5888 12 192 12C291.411 12 372 92.5888 372 192Z" fill="white" stroke="#00406B" stroke-width="4"/>
<path d="M137.513 130.705V117.458C141.983 115.551 146.54 113.877 151.184 112.431C155.823 110.985 160.521 109.776 165.284 108.805C170.046 107.833 174.849 107.099 179.684 106.611C184.52 106.123 189.368 105.881 194.226 105.881C199.089 105.881 203.933 106.123 208.773 106.611C213.608 107.099 218.407 107.833 223.169 108.805C227.932 109.776 232.63 110.985 237.274 112.431C241.913 113.877 246.47 115.551 250.94 117.458V128.944L289.444 121.869L264.803 121.988V108.472L259.37 106.013C254.261 103.709 249.047 101.684 243.724 99.9325C238.4 98.1854 233.004 96.7212 227.526 95.5443C222.052 94.3629 216.528 93.4825 210.954 92.8895C205.384 92.2965 199.801 92 194.199 92C188.598 92 183.01 92.2965 177.44 92.8895C171.87 93.4825 166.346 94.3629 160.868 95.5443C155.39 96.7212 149.993 98.1854 144.67 99.9325C139.347 101.684 134.133 103.709 129.028 106.013L123.582 108.472V121.997L95.3187 121.869L137.513 130.705Z" fill="#00406B"/>
<path d="M242.113 175.152C240.827 177.958 239.413 180.708 237.867 183.4C233.588 190.817 228.424 197.554 222.376 203.612C216.327 209.669 209.594 214.838 202.186 219.126L194.226 223.714L186.267 219.126C178.85 214.842 172.117 209.669 166.059 203.612C160.001 197.559 154.833 190.821 150.55 183.4L149.843 182.159C147.585 180.001 145.509 177.679 143.621 175.189H131.254C133.54 181.037 136.3 186.657 139.534 192.039C142.768 197.417 146.431 202.494 150.518 207.256C154.61 212.019 159.071 216.407 163.901 220.416C168.732 224.421 173.868 227.998 179.301 231.141L194.226 239.73L209.152 231.141C214.594 227.998 219.73 224.421 224.565 220.412C229.405 216.398 233.866 212.01 237.962 207.243C242.054 202.476 245.722 197.399 248.956 192.012C252.194 186.625 254.954 181.005 257.24 175.152H242.113Z" fill="#00406B"/>
<path d="M322.857 139.973C331.515 139.458 344 116.454 344 116.454L235.55 136.361C231.526 137.1 227.603 136.735 223.79 135.266L200.636 126.348C199.595 125.947 198.519 125.682 197.411 125.554C196.302 125.427 195.194 125.436 194.09 125.591C192.986 125.741 191.918 126.033 190.888 126.458C189.852 126.882 188.89 127.429 188 128.1L166.807 144.024C166.397 144.33 166.196 144.74 166.2 145.247C166.196 145.757 166.397 146.163 166.807 146.464C167.77 147.181 168.823 147.733 169.964 148.107C171.104 148.485 172.276 148.677 173.476 148.677C174.68 148.677 175.848 148.485 176.993 148.107C178.133 147.733 179.183 147.181 180.15 146.464L188.817 139.955C189.337 139.567 189.884 139.221 190.459 138.924C191.033 138.623 191.631 138.372 192.247 138.167C192.863 137.962 193.488 137.811 194.131 137.706C194.769 137.601 195.413 137.551 196.065 137.551C196.713 137.551 197.356 137.601 197.994 137.706C198.638 137.811 199.267 137.962 199.883 138.167C200.499 138.372 201.092 138.623 201.666 138.924C202.241 139.221 202.789 139.567 203.313 139.955L234.094 163.137C235.066 163.844 235.873 164.706 236.507 165.728C237.141 166.75 237.561 167.853 237.766 169.039V169.108C237.858 169.564 238.081 169.934 238.442 170.225C238.802 170.513 239.217 170.65 239.678 170.641C239.678 170.641 275.855 172.324 287.683 173.628C293.417 174.262 305.596 162.676 305.596 162.676L275.226 157.49C287.049 158.379 302.321 159.415 310.29 159.424C317.128 159.424 329.85 143.545 329.85 143.545L257.527 144.024C257.527 144.024 304.926 141.05 322.857 139.973Z" fill="#DE1222"/>
<path d="M233.401 170.002C233.31 169.341 233.091 168.725 232.744 168.155C232.397 167.584 231.955 167.105 231.408 166.718L200.567 143.527C199.906 143.03 199.185 142.656 198.405 142.391C197.625 142.131 196.822 142.003 195.996 142.003C195.175 142.003 194.373 142.131 193.592 142.391C192.808 142.656 192.092 143.03 191.43 143.527L182.763 150.027C182.093 150.529 181.386 150.971 180.647 151.359C179.903 151.742 179.137 152.071 178.343 152.331C177.55 152.595 176.738 152.796 175.912 152.928C175.086 153.06 174.256 153.129 173.417 153.129C172.582 153.129 171.747 153.06 170.922 152.928C170.096 152.796 169.289 152.595 168.495 152.331C167.697 152.071 166.93 151.742 166.187 151.359C165.448 150.971 164.741 150.529 164.07 150.027C163.29 149.443 162.688 148.709 162.264 147.833C161.844 146.953 161.648 146.027 161.68 145.05C161.73 144.111 161.981 143.226 162.433 142.396C162.88 141.565 163.486 140.877 164.248 140.32L179.173 129.121C179.461 128.953 179.652 128.711 179.748 128.392C179.844 128.068 179.821 127.762 179.671 127.461C179.525 127.16 179.292 126.95 178.982 126.832C178.667 126.713 178.357 126.718 178.047 126.845L153.515 135.416C149.697 136.753 145.81 137.004 141.851 136.169L132.687 134.381V134.322C132.322 134.271 132.012 134.221 131.775 134.171L41 116.454C41 116.454 53.4895 139.458 62.1427 139.973C80.0559 141.05 127.455 144.115 127.455 144.115L55.118 143.636C55.118 143.636 67.8674 159.533 74.6915 159.51C82.6514 159.51 97.9325 158.516 109.756 157.581L79.3762 162.767C79.3762 162.767 91.5874 174.322 97.2848 173.715C105.108 172.839 143.963 170.732 144.05 170.732C145.541 170.732 146.038 170.96 146.499 171.567C147.744 173.3 149.09 174.951 150.536 176.52C151.978 178.094 153.51 179.577 155.13 180.963C156.749 182.355 158.441 183.646 160.211 184.836C161.986 186.027 163.819 187.108 165.717 188.079C167.619 189.056 169.567 189.913 171.569 190.652C173.567 191.396 175.606 192.016 177.677 192.518C179.753 193.019 181.851 193.398 183.968 193.649C186.089 193.904 188.214 194.032 190.345 194.032H190.495C190.828 194.037 191.152 193.991 191.471 193.891C191.791 193.79 192.083 193.644 192.352 193.448C192.621 193.252 192.854 193.019 193.045 192.746C193.237 192.477 193.383 192.18 193.483 191.861C193.702 191.227 193.72 190.588 193.538 189.945C193.36 189.297 193.004 188.764 192.484 188.339L188.037 184.982C187.799 184.813 187.603 184.603 187.444 184.357C187.288 184.111 187.179 183.846 187.124 183.559C187.065 183.271 187.06 182.984 187.115 182.697C187.165 182.405 187.27 182.136 187.421 181.889C187.594 181.634 187.808 181.424 188.064 181.26C188.324 181.096 188.602 180.986 188.903 180.936C189.204 180.886 189.505 180.895 189.802 180.968C190.098 181.041 190.372 181.169 190.614 181.351L195.025 184.667L195.23 184.827L202.725 190.47C203.117 190.762 203.546 190.99 204.016 191.145C204.481 191.3 204.96 191.377 205.452 191.377C205.941 191.377 206.42 191.3 206.885 191.145C207.355 190.99 207.783 190.762 208.176 190.47C209.042 189.84 209.608 189.01 209.868 187.97C209.987 187.537 210.037 187.094 210.023 186.642C210.009 186.195 209.927 185.758 209.781 185.333C209.64 184.905 209.435 184.512 209.17 184.147C208.906 183.782 208.595 183.463 208.235 183.194L199.203 176.425C198.989 176.27 198.806 176.083 198.66 175.864C198.51 175.649 198.405 175.412 198.336 175.157C198.268 174.901 198.245 174.641 198.268 174.381C198.291 174.116 198.355 173.866 198.464 173.628C198.61 173.327 198.811 173.067 199.071 172.857C199.331 172.648 199.623 172.502 199.947 172.424C200.275 172.347 200.599 172.337 200.927 172.406C201.256 172.474 201.552 172.611 201.817 172.812L210.881 179.599L215.917 183.39C216.3 183.691 216.719 183.924 217.171 184.093C217.627 184.261 218.097 184.362 218.581 184.384C219.069 184.407 219.543 184.357 220.013 184.229C220.483 184.106 220.921 183.91 221.331 183.65C221.632 183.449 221.906 183.217 222.148 182.952C222.394 182.688 222.608 182.396 222.782 182.076C222.96 181.762 223.096 181.429 223.192 181.082C223.288 180.735 223.343 180.379 223.357 180.015C223.366 179.654 223.338 179.298 223.265 178.943C223.192 178.587 223.078 178.249 222.923 177.921C222.768 177.592 222.576 177.291 222.348 177.008C222.125 176.726 221.865 176.475 221.578 176.256L210.206 167.685C209.991 167.53 209.809 167.343 209.663 167.128C209.512 166.909 209.403 166.672 209.334 166.421C209.266 166.166 209.243 165.906 209.266 165.641C209.289 165.381 209.353 165.126 209.462 164.888C209.603 164.587 209.809 164.327 210.064 164.118C210.324 163.908 210.616 163.762 210.945 163.684C211.268 163.607 211.592 163.598 211.921 163.666C212.249 163.734 212.546 163.871 212.815 164.072L224.223 172.661H224.273L225.925 173.907C226.408 174.267 226.937 174.527 227.517 174.687C228.096 174.846 228.68 174.897 229.277 174.837C229.875 174.773 230.441 174.609 230.974 174.335C231.508 174.057 231.978 173.697 232.375 173.25C233.155 172.306 233.497 171.224 233.401 170.002Z" fill="#DE1222"/>
<path d="M69.9894 267.675H61.3005C60.8643 267.675 60.3165 267.501 60.3165 266.081V263.936C60.3165 263.414 60.4018 263.011 60.5461 262.719C60.6642 262.545 60.8381 262.345 61.3301 262.345H73.1185C73.3514 262.345 73.932 262.256 73.932 261.358V259.042C73.932 258.143 73.3514 258.055 73.1185 258.055H60.6347C59.0406 258.055 57.8827 258.576 57.1283 259.649C56.3739 260.692 56 262.083 56 263.762V265.966C56 267.964 56.4034 269.587 57.1283 270.601C58.0271 271.788 59.3588 271.962 60.5757 271.962H69.2677C69.7007 271.962 70.2813 272.136 70.2813 273.556V276.046C70.2813 276.567 70.1927 276.974 70.0189 277.263C69.9041 277.436 69.7302 277.64 69.2382 277.64H56.8692C56.6068 277.64 56.0262 277.725 56.0262 278.624V280.943C56.0262 281.842 56.6068 281.927 56.8692 281.927H69.9336C71.5277 281.927 72.7151 281.376 73.4662 280.303C74.1911 279.26 74.5683 277.899 74.5683 276.22V273.671C74.5683 271.788 74.1911 270.309 73.4367 269.266C72.656 268.223 71.4982 267.675 69.9894 267.675Z" fill="#404041"/>
<path d="M97.0762 258.055H83.6937C83.4608 258.055 82.8835 258.143 82.8835 259.071V261.358C82.8835 262.256 83.4608 262.345 83.6937 262.345H96.3251C97.0467 262.345 97.5682 262.545 97.8601 262.981C98.1783 263.414 98.3226 264.11 98.3226 265.067C98.3226 266.022 98.1783 266.717 97.8601 267.154C97.5682 267.586 97.0467 267.79 96.3251 267.79H83.6937C83.4608 267.79 82.8835 267.875 82.8835 268.774V280.943C82.8835 281.842 83.4608 281.956 83.6937 281.956H86.3571C86.5899 281.956 87.1705 281.842 87.1705 280.943V272.077L97.0762 272.047C99.0475 272.047 100.468 271.441 101.337 270.224C102.206 269.007 102.61 267.268 102.61 264.979V265.153C102.61 262.837 102.206 261.099 101.337 259.911C100.468 258.665 99.0475 258.055 97.0762 258.055Z" fill="#404041"/>
<path d="M130.652 260.17C130.075 259.445 129.32 258.898 128.392 258.55C127.493 258.229 126.394 258.055 125.118 258.055H118.05C116.777 258.055 115.705 258.229 114.806 258.55C113.878 258.898 113.127 259.445 112.546 260.17C111.995 260.895 111.562 261.85 111.3 263.011C111.041 264.139 110.926 265.5 110.926 267.124V272.861C110.926 274.481 111.041 275.872 111.3 277.003C111.562 278.161 111.995 279.116 112.546 279.841C113.127 280.595 113.878 281.146 114.806 281.464C115.675 281.782 116.777 281.956 118.05 281.956H125.118C126.394 281.956 127.493 281.782 128.392 281.464C129.32 281.146 130.075 280.595 130.652 279.87C131.232 279.116 131.636 278.161 131.898 277.003C132.131 275.872 132.276 274.481 132.276 272.861V267.124C132.276 265.53 132.131 264.139 131.898 263.011C131.636 261.85 131.232 260.895 130.652 260.17ZM127.959 266.632V273.382C127.959 274.222 127.929 274.944 127.815 275.524C127.726 276.046 127.552 276.508 127.319 276.8C127.119 277.118 126.827 277.322 126.453 277.436C126.076 277.581 125.584 277.64 124.974 277.64H118.194C117.588 277.64 117.096 277.581 116.718 277.436C116.341 277.322 116.052 277.118 115.849 276.8C115.616 276.508 115.472 276.046 115.357 275.524C115.269 274.944 115.213 274.222 115.213 273.382V266.632C115.213 265.792 115.269 265.067 115.357 264.487C115.472 263.936 115.616 263.503 115.849 263.185C116.052 262.893 116.341 262.693 116.718 262.545C117.096 262.43 117.588 262.345 118.194 262.345H124.974C125.584 262.345 126.076 262.43 126.453 262.545C126.827 262.693 127.119 262.893 127.319 263.185C127.552 263.503 127.726 263.936 127.815 264.487C127.929 265.067 127.959 265.792 127.959 266.632Z" fill="#404041"/>
<path d="M161.1 258.055H158.522C158.26 258.055 157.709 258.143 157.709 259.071V276.482C157.709 276.508 157.709 276.508 157.709 276.538H157.564C157.535 276.538 157.505 276.538 157.479 276.452L148.325 260.17C148.092 259.737 147.888 259.39 147.685 259.127C147.485 258.839 147.282 258.606 147.078 258.461C146.845 258.288 146.586 258.173 146.268 258.114C145.976 258.084 145.628 258.055 145.255 258.055H143.08C142.24 258.055 141.604 258.347 141.197 258.868C140.79 259.419 140.59 260.374 140.59 261.794V280.943C140.59 281.842 141.168 281.956 141.43 281.956H144.008C144.267 281.956 144.818 281.842 144.818 280.943V263.532C144.818 263.503 144.818 263.473 144.818 263.473H144.963C144.963 263.473 144.992 263.473 145.051 263.562L154.232 279.841C154.465 280.303 154.698 280.651 154.901 280.913C155.101 281.202 155.305 281.405 155.537 281.55C155.77 281.723 156.029 281.812 156.318 281.868C156.58 281.927 156.899 281.956 157.305 281.956H159.418C160.257 281.956 160.897 281.668 161.3 281.117C161.707 280.595 161.911 279.637 161.911 278.22V259.071C161.911 258.143 161.33 258.055 161.1 258.055Z" fill="#404041"/>
<path d="M184.215 267.675H175.526C175.09 267.675 174.542 267.501 174.542 266.081V263.936C174.542 263.414 174.628 263.011 174.772 262.719C174.89 262.545 175.064 262.345 175.556 262.345H187.344C187.577 262.345 188.158 262.256 188.158 261.358V259.042C188.158 258.143 187.577 258.055 187.344 258.055H174.86C173.266 258.055 172.109 258.576 171.354 259.649C170.6 260.692 170.226 262.083 170.226 263.762V265.966C170.226 267.964 170.629 269.587 171.354 270.601C172.253 271.788 173.585 271.962 174.801 271.962H183.494C183.926 271.962 184.507 272.136 184.507 273.556V276.046C184.507 276.567 184.418 276.974 184.245 277.263C184.13 277.436 183.956 277.64 183.464 277.64H171.095C170.833 277.64 170.252 277.725 170.252 278.624V280.943C170.252 281.842 170.833 281.927 171.095 281.927H184.159C185.753 281.927 186.941 281.376 187.692 280.303C188.417 279.26 188.794 277.899 188.794 276.22V273.671C188.794 271.788 188.417 270.309 187.662 269.266C186.882 268.223 185.724 267.675 184.215 267.675Z" fill="#404041"/>
<path d="M216.836 260.17C216.258 259.445 215.504 258.898 214.576 258.55C213.677 258.229 212.578 258.055 211.302 258.055H204.234C202.961 258.055 201.888 258.229 200.99 258.55C200.061 258.898 199.31 259.445 198.73 260.17C198.179 260.895 197.746 261.85 197.483 263.011C197.224 264.139 197.109 265.5 197.109 267.124V272.861C197.109 274.481 197.224 275.872 197.483 277.003C197.746 278.161 198.179 279.116 198.73 279.841C199.31 280.595 200.061 281.146 200.99 281.464C201.859 281.782 202.961 281.956 204.234 281.956H211.302C212.578 281.956 213.677 281.782 214.576 281.464C215.504 281.146 216.258 280.595 216.836 279.87C217.416 279.116 217.82 278.161 218.082 277.003C218.315 275.872 218.459 274.481 218.459 272.861V267.124C218.459 265.53 218.315 264.139 218.082 263.011C217.82 261.85 217.416 260.895 216.836 260.17ZM214.143 266.632V273.382C214.143 274.222 214.113 274.944 213.998 275.524C213.91 276.046 213.736 276.508 213.503 276.8C213.303 277.118 213.011 277.322 212.637 277.436C212.26 277.581 211.768 277.64 211.158 277.64H204.378C203.771 277.64 203.279 277.581 202.902 277.436C202.525 277.322 202.236 277.118 202.033 276.8C201.8 276.508 201.656 276.046 201.541 275.524C201.452 274.944 201.396 274.222 201.396 273.382V266.632C201.396 265.792 201.452 265.067 201.541 264.487C201.656 263.936 201.8 263.503 202.033 263.185C202.236 262.893 202.525 262.693 202.902 262.545C203.279 262.43 203.771 262.345 204.378 262.345H211.158C211.768 262.345 212.26 262.43 212.637 262.545C213.011 262.693 213.303 262.893 213.503 263.185C213.736 263.503 213.91 263.936 213.998 264.487C214.113 265.067 214.143 265.792 214.143 266.632Z" fill="#404041"/>
<path d="M246.53 264.979C246.53 265.008 246.53 265.038 246.53 265.067C246.53 265.097 246.53 265.123 246.53 265.153V264.979ZM247.081 280.68L242.01 271.992C243.43 271.818 244.532 271.208 245.254 270.224C246.067 269.036 246.5 267.327 246.53 265.067C246.5 262.807 246.067 261.099 245.254 259.911C244.385 258.665 242.938 258.055 240.967 258.055H227.614C227.351 258.055 226.774 258.143 226.774 259.071V261.358C226.774 262.256 227.351 262.345 227.614 262.345H240.216C240.967 262.345 241.459 262.545 241.751 262.981C242.069 263.414 242.213 264.11 242.213 265.067C242.213 266.022 242.069 266.717 241.751 267.154C241.459 267.586 240.967 267.79 240.216 267.79H227.614C227.351 267.79 226.774 267.875 226.774 268.774V280.943C226.774 281.842 227.351 281.956 227.614 281.956H230.248C230.51 281.956 231.061 281.842 231.061 280.943V272.077H237.172L242.416 281.376C242.531 281.55 242.62 281.694 242.735 281.782C242.879 281.897 243.082 281.956 243.341 281.956H246.53C246.877 281.956 247.136 281.723 247.196 281.376C247.225 281.087 247.196 280.854 247.081 280.68Z" fill="#404041"/>
<path d="M256.262 270.806H265.158C265.62 270.806 265.882 270.514 265.882 270.022V268.343C265.882 267.851 265.62 267.559 265.158 267.559H256.262C255.829 267.559 255.54 267.851 255.54 268.343V270.022C255.54 270.514 255.829 270.806 256.262 270.806Z" fill="#404041"/>
<path d="M298.384 258.055H295.776C295.373 258.055 295.055 258.084 294.763 258.173C294.474 258.258 294.212 258.402 293.982 258.606C293.779 258.839 293.575 259.098 293.401 259.445C293.228 259.793 293.083 260.229 292.909 260.78L287.783 273.582C287.753 273.7 287.724 273.7 287.694 273.7H287.406C287.406 273.7 287.346 273.7 287.317 273.582L282.22 260.78C282.046 260.229 281.872 259.793 281.728 259.445C281.554 259.098 281.351 258.839 281.147 258.606C280.918 258.402 280.626 258.258 280.337 258.173C280.048 258.084 279.701 258.055 279.324 258.055H276.657C275.673 258.055 275.007 258.376 274.659 258.983C274.341 259.534 274.197 260.459 274.197 261.794V280.943C274.197 281.842 274.774 281.956 275.036 281.956H277.526C277.788 281.956 278.339 281.842 278.339 280.943V263.532C278.339 263.503 278.339 263.473 278.339 263.473H278.484C278.513 263.473 278.54 263.473 278.569 263.562L283.522 275.813C283.725 276.423 283.929 276.944 284.132 277.377C284.365 277.814 284.595 278.161 284.827 278.45C285.116 278.739 285.408 278.971 285.756 279.086C286.103 279.204 286.477 279.26 286.914 279.26H288.101C288.534 279.26 288.941 279.204 289.259 279.086C289.606 278.971 289.925 278.739 290.187 278.45C290.417 278.161 290.679 277.814 290.882 277.377C291.086 276.944 291.286 276.423 291.489 275.813L296.472 263.532C296.472 263.473 296.501 263.473 296.531 263.473H296.675C296.675 263.473 296.675 263.503 296.675 263.532V280.943C296.675 281.842 297.255 281.956 297.485 281.956H299.978C300.24 281.956 300.818 281.842 300.818 280.943V261.794C300.818 260.459 300.673 259.534 300.355 258.983C300.007 258.376 299.342 258.055 298.384 258.055Z" fill="#404041"/>
<path d="M326.544 276.742H316.346C315.736 276.742 315.244 276.657 314.838 276.539C314.464 276.394 314.201 276.191 313.972 275.902C313.739 275.584 313.565 275.148 313.476 274.6C313.45 274.453 313.45 274.253 313.421 274.105C313.421 274.105 313.45 272.019 313.476 272.019H326.426C326.659 272.019 327.239 271.904 327.239 271.005V268.719C327.239 267.82 326.659 267.732 326.426 267.732L311.479 267.761C310.639 267.82 309.914 268.253 309.508 268.978C309.363 269.211 309.248 269.441 309.189 269.703L309.134 273.354V273.498C309.16 274.859 309.307 276.017 309.508 276.975C309.77 278.133 310.203 279.087 310.754 279.812C311.335 280.567 312.086 281.088 313.014 281.406C313.913 281.754 314.985 281.898 316.258 281.898H326.544C326.803 281.898 327.384 281.813 327.384 280.914V277.726C327.384 276.831 326.803 276.742 326.544 276.742ZM326.57 258H309.914C309.681 258 309.134 258.115 309.134 259.043V261.303C309.134 262.198 309.681 262.287 309.914 262.287L326.57 262.317C326.803 262.317 327.384 262.198 327.384 261.303V259.014C327.384 258.115 326.803 258 326.57 258Z" fill="#404041"/>
<path d="M114.418 314.412C114.418 315.653 113.954 316.606 113.034 317.282C112.106 317.94 110.815 318.26 109.152 318.26C107.397 318.26 106.021 317.982 105.034 317.417V315.56C105.684 315.881 106.367 316.134 107.093 316.336C107.836 316.522 108.545 316.606 109.22 316.606C110.275 316.606 111.085 316.438 111.65 316.1C112.207 315.762 112.494 315.256 112.494 314.581C112.494 314.066 112.266 313.627 111.819 313.264C111.363 312.885 110.486 312.446 109.186 311.948C107.945 311.475 107.068 311.07 106.553 310.732C106.03 310.395 105.641 310.015 105.371 309.585C105.118 309.137 105 308.606 105 307.998C105 306.918 105.439 306.065 106.317 305.433C107.194 304.808 108.41 304.487 109.962 304.487C111.38 304.487 112.773 304.783 114.148 305.365L113.439 306.985C112.106 306.445 110.891 306.175 109.794 306.175C108.848 306.175 108.123 306.327 107.633 306.614C107.16 306.909 106.924 307.323 106.924 307.863C106.924 308.226 107.009 308.53 107.194 308.775C107.371 309.028 107.667 309.264 108.072 309.483C108.477 309.711 109.253 310.04 110.401 310.462C111.971 311.053 113.034 311.636 113.574 312.218C114.131 312.783 114.418 313.518 114.418 314.412Z" fill="#737373"/>
<path d="M123.904 318.26C123.026 318.26 122.225 318.1 121.507 317.788C120.781 317.476 120.191 316.978 119.718 316.303H119.583C119.667 317.096 119.718 317.839 119.718 318.531V323.999H117.693V304.724H119.347L119.617 306.547H119.718C120.233 305.829 120.832 305.314 121.507 304.994C122.199 304.656 123.001 304.487 123.904 304.487C125.659 304.487 127.01 305.095 127.955 306.31C128.917 307.509 129.407 309.197 129.407 311.374C129.407 313.56 128.909 315.256 127.921 316.471C126.951 317.67 125.609 318.26 123.904 318.26ZM123.6 306.209C122.25 306.209 121.271 306.58 120.663 307.323C120.056 308.066 119.735 309.264 119.718 310.901V311.374C119.718 313.247 120.022 314.581 120.63 315.391C121.254 316.184 122.258 316.573 123.634 316.573C124.782 316.573 125.676 316.117 126.335 315.189C126.984 314.269 127.314 312.986 127.314 311.34C127.314 309.678 126.984 308.403 126.335 307.526C125.676 306.648 124.765 306.209 123.6 306.209Z" fill="#737373"/>
<path d="M144.39 311.374C144.39 313.534 143.833 315.222 142.736 316.438C141.656 317.653 140.154 318.26 138.247 318.26C137.048 318.26 135.993 317.99 135.073 317.45C134.145 316.893 133.428 316.092 132.913 315.053C132.415 313.999 132.17 312.775 132.17 311.374C132.17 309.197 132.71 307.509 133.791 306.31C134.888 305.095 136.398 304.487 138.314 304.487C140.179 304.487 141.656 305.112 142.736 306.344C143.833 307.585 144.39 309.264 144.39 311.374ZM134.263 311.374C134.263 313.062 134.601 314.361 135.276 315.256C135.968 316.134 136.972 316.573 138.28 316.573C139.605 316.573 140.61 316.134 141.285 315.256C141.96 314.378 142.297 313.087 142.297 311.374C142.297 309.686 141.96 308.403 141.285 307.526C140.61 306.648 139.597 306.209 138.247 306.209C136.938 306.209 135.951 306.648 135.276 307.526C134.601 308.386 134.263 309.669 134.263 311.374Z" fill="#737373"/>
<path d="M153.991 304.487C154.573 304.487 155.105 304.538 155.578 304.622L155.308 306.513C154.742 306.378 154.261 306.31 153.856 306.31C152.776 306.31 151.847 306.749 151.088 307.627C150.32 308.504 149.94 309.602 149.94 310.901V318.024H147.915V304.724H149.569L149.805 307.188H149.906C150.396 306.336 150.995 305.669 151.695 305.196C152.387 304.724 153.155 304.487 153.991 304.487Z" fill="#737373"/>
<path d="M162.341 316.613C162.695 316.613 163.049 316.596 163.387 316.545C163.725 316.478 163.978 316.427 164.163 316.377V317.896C163.961 318.014 163.64 318.098 163.218 318.166C162.788 318.233 162.408 318.267 162.07 318.267C159.505 318.267 158.222 316.917 158.222 314.216V306.283H156.298V305.338L158.222 304.494L159.066 301.658H160.214V304.73H164.096V306.283H160.214V314.115C160.214 314.925 160.399 315.55 160.788 315.972C161.167 316.402 161.682 316.613 162.341 316.613Z" fill="#737373"/>
<path d="M176.177 303.815C176.177 304.38 176.32 304.92 176.615 305.435C176.902 305.933 177.4 306.541 178.101 307.258C179.13 306.65 179.856 306.093 180.261 305.57C180.683 305.055 180.903 304.456 180.903 303.781C180.903 303.156 180.683 302.65 180.261 302.262C179.856 301.882 179.299 301.688 178.607 301.688C177.881 301.688 177.299 301.882 176.852 302.262C176.396 302.65 176.177 303.165 176.177 303.815ZM178.033 316.474C179.991 316.474 181.612 315.849 182.894 314.583L177.594 309.452C176.691 309.992 176.05 310.448 175.67 310.802C175.307 311.165 175.037 311.562 174.86 311.984C174.674 312.389 174.59 312.853 174.59 313.368C174.59 314.313 174.902 315.073 175.535 315.63C176.16 316.195 176.995 316.474 178.033 316.474ZM172.531 313.436C172.531 312.381 172.809 311.444 173.375 310.634C173.932 309.824 174.936 309.013 176.379 308.203C175.704 307.418 175.24 306.836 174.995 306.448C174.742 306.043 174.539 305.629 174.387 305.199C174.252 304.777 174.185 304.338 174.185 303.882C174.185 302.667 174.573 301.722 175.366 301.046C176.151 300.354 177.257 300 178.675 300C179.974 300 181.004 300.338 181.747 301.013C182.506 301.688 182.894 302.633 182.894 303.848C182.894 304.709 182.607 305.503 182.05 306.245C181.51 306.971 180.607 307.714 179.35 308.473L184.278 313.199C184.726 312.71 185.089 312.119 185.359 311.444C185.629 310.769 185.865 310.026 186.068 309.216H188.093C187.553 311.537 186.717 313.292 185.595 314.482L189.241 318.027H186.473L184.211 315.866C183.266 316.727 182.295 317.343 181.308 317.723C180.312 318.077 179.215 318.263 177.999 318.263C176.261 318.263 174.911 317.841 173.949 316.98C173.003 316.128 172.531 314.946 172.531 313.436Z" fill="#737373"/>
<path d="M203.493 318.26C201.51 318.26 199.949 317.67 198.801 316.471C197.67 315.281 197.113 313.619 197.113 311.475C197.113 309.34 197.636 307.644 198.7 306.378C199.755 305.12 201.173 304.487 202.953 304.487C204.616 304.487 205.932 305.044 206.903 306.141C207.865 307.222 208.355 308.665 208.355 310.462V311.745H199.206C199.248 313.298 199.645 314.48 200.388 315.29C201.13 316.1 202.185 316.505 203.561 316.505C204.979 316.505 206.397 316.201 207.814 315.594V317.417C207.089 317.712 206.413 317.923 205.789 318.058C205.156 318.193 204.388 318.26 203.493 318.26ZM202.92 306.175C201.856 306.175 201.012 306.53 200.388 307.222C199.755 307.922 199.383 308.876 199.274 310.091H206.228C206.228 308.834 205.932 307.863 205.35 307.188C204.785 306.513 203.974 306.175 202.92 306.175Z" fill="#737373"/>
<path d="M210.676 312.288V310.432H216.652V312.288H210.676Z" fill="#737373"/>
<path d="M228.357 314.412C228.357 315.653 227.893 316.606 226.973 317.282C226.045 317.94 224.754 318.26 223.091 318.26C221.336 318.26 219.96 317.982 218.973 317.417V315.56C219.622 315.881 220.306 316.134 221.032 316.336C221.774 316.522 222.483 316.606 223.159 316.606C224.213 316.606 225.024 316.438 225.589 316.1C226.146 315.762 226.433 315.256 226.433 314.581C226.433 314.066 226.205 313.627 225.758 313.264C225.302 312.885 224.424 312.446 223.125 311.948C221.884 311.475 221.006 311.07 220.492 310.732C219.968 310.395 219.58 310.015 219.31 309.585C219.057 309.137 218.939 308.606 218.939 307.998C218.939 306.918 219.378 306.065 220.255 305.433C221.133 304.808 222.348 304.487 223.901 304.487C225.319 304.487 226.712 304.783 228.087 305.365L227.378 306.985C226.045 306.445 224.83 306.175 223.732 306.175C222.787 306.175 222.061 306.327 221.572 306.614C221.099 306.909 220.863 307.323 220.863 307.863C220.863 308.226 220.947 308.53 221.133 308.775C221.31 309.028 221.606 309.264 222.011 309.483C222.416 309.711 223.192 310.04 224.34 310.462C225.91 311.053 226.973 311.636 227.513 312.218C228.07 312.783 228.357 313.518 228.357 314.412Z" fill="#737373"/>
<path d="M237.843 318.26C236.965 318.26 236.163 318.1 235.446 317.788C234.72 317.476 234.13 316.978 233.657 316.303H233.522C233.606 317.096 233.657 317.839 233.657 318.531V323.999H231.631V304.724H233.286L233.556 306.547H233.657C234.172 305.829 234.771 305.314 235.446 304.994C236.138 304.656 236.94 304.487 237.843 304.487C239.598 304.487 240.949 305.095 241.894 306.31C242.856 307.509 243.345 309.197 243.345 311.374C243.345 313.56 242.847 315.256 241.86 316.471C240.89 317.67 239.548 318.26 237.843 318.26ZM237.539 306.209C236.189 306.209 235.21 306.58 234.602 307.323C233.994 308.066 233.674 309.264 233.657 310.901V311.374C233.657 313.247 233.961 314.581 234.568 315.391C235.193 316.184 236.197 316.573 237.573 316.573C238.721 316.573 239.615 316.117 240.273 315.189C240.923 314.269 241.252 312.986 241.252 311.34C241.252 309.678 240.923 308.403 240.273 307.526C239.615 306.648 238.704 306.209 237.539 306.209Z" fill="#737373"/>
<path d="M258.329 311.374C258.329 313.534 257.772 315.222 256.675 316.438C255.595 317.653 254.092 318.26 252.185 318.26C250.987 318.26 249.932 317.99 249.012 317.45C248.084 316.893 247.366 316.092 246.851 315.053C246.353 313.999 246.109 312.775 246.109 311.374C246.109 309.197 246.649 307.509 247.729 306.31C248.826 305.095 250.337 304.487 252.253 304.487C254.118 304.487 255.595 305.112 256.675 306.344C257.772 307.585 258.329 309.264 258.329 311.374ZM248.202 311.374C248.202 313.062 248.539 314.361 249.214 315.256C249.906 316.134 250.911 316.573 252.219 316.573C253.544 316.573 254.548 316.134 255.223 315.256C255.898 314.378 256.236 313.087 256.236 311.374C256.236 309.686 255.898 308.403 255.223 307.526C254.548 306.648 253.535 306.209 252.185 306.209C250.877 306.209 249.89 306.648 249.214 307.526C248.539 308.386 248.202 309.669 248.202 311.374Z" fill="#737373"/>
<path d="M267.93 304.487C268.512 304.487 269.044 304.538 269.516 304.622L269.246 306.513C268.681 306.378 268.2 306.31 267.795 306.31C266.714 306.31 265.786 306.749 265.027 307.627C264.259 308.504 263.879 309.602 263.879 310.901V318.024H261.853V304.724H263.508L263.744 307.188H263.845C264.335 306.336 264.934 305.669 265.634 305.196C266.326 304.724 267.094 304.487 267.93 304.487Z" fill="#737373"/>
<path d="M276.279 316.613C276.634 316.613 276.988 316.596 277.326 316.545C277.663 316.478 277.916 316.427 278.102 316.377V317.896C277.9 318.014 277.579 318.098 277.157 318.166C276.726 318.233 276.347 318.267 276.009 318.267C273.444 318.267 272.161 316.917 272.161 314.216V306.283H270.237V305.338L272.161 304.494L273.005 301.658H274.152V304.73H278.035V306.283H274.152V314.115C274.152 314.925 274.338 315.55 274.726 315.972C275.106 316.402 275.621 316.613 276.279 316.613Z" fill="#737373"/>
<rect x="217" y="21" width="158" height="56" rx="5" fill="white"/>
<path d="M255.487 43.1789V41.0382C255.487 38.5513 254.991 36.6349 253.996 35.3717C253 34.0731 251.316 33.4199 248.978 33.4199H232.061V33.4593C230.952 33.534 229.996 34.1479 229.421 35.0648C229.268 35.3717 229.114 35.718 229.039 36.0249L229 62.1656C229.079 62.5867 229.228 63.0077 229.421 63.3501C230.035 64.385 231.145 64.9989 232.329 64.9989H249.553C250.702 64.9989 251.658 64.806 252.425 64.4243C253.228 64.0426 253.881 63.5035 254.338 62.7795C254.838 62.0869 255.141 61.2487 255.373 60.2532C255.562 59.293 255.68 58.1833 255.68 56.9989V54.4332C255.68 51.9069 254.952 49.9944 253.575 48.7313C254.873 47.4288 255.487 45.5557 255.487 43.1789ZM234.627 59.1041V39.3147C234.627 39.1612 234.667 39.0864 234.702 39.0864H247.987C248.711 39.0864 249.25 39.2753 249.553 39.6216C249.86 39.9639 250.013 40.5778 250.013 41.3806V44.021C250.013 44.749 249.86 45.3235 249.517 45.7052C249.211 46.0515 248.557 46.2443 247.566 46.2443H240.14C239.452 46.2443 238.877 46.8188 238.877 47.5075V50.6437C238.877 51.3717 239.452 51.9069 240.14 51.9069H247.566C248.557 51.9069 249.211 52.1391 249.553 52.5208C249.86 52.9025 250.053 53.5163 250.053 54.3584V56.9595C250.053 57.841 249.899 58.4509 249.592 58.7972C249.285 59.1435 248.75 59.293 247.987 59.293H234.667C234.667 59.293 234.627 59.2576 234.627 59.1041Z" fill="#DE1222"/>
<path d="M286.718 58.1101H273.244C272.441 58.1101 271.788 57.996 271.253 57.8425C270.757 57.6497 270.411 57.3821 270.104 57.0004C269.801 56.5793 269.569 56.0048 269.454 55.2768C269.415 55.0879 269.415 54.8164 269.38 54.6275C269.38 54.6275 269.415 51.8691 269.454 51.8691H286.564C286.871 51.8691 287.634 51.7195 287.634 50.5311V47.509C287.634 46.3206 286.871 46.2065 286.564 46.2065L266.814 46.2458C265.704 46.3206 264.748 46.8951 264.213 47.8514C264.02 48.1583 263.867 48.4652 263.792 48.8076L263.713 53.632V53.8248C263.753 55.6231 263.941 57.1539 264.213 58.417C264.555 59.9478 265.13 61.2109 265.858 62.1671C266.621 63.1627 267.617 63.8514 268.844 64.2724C270.029 64.7328 271.446 64.9217 273.13 64.9217H286.718C287.06 64.9217 287.827 64.8076 287.827 63.6231V59.4126C287.827 58.2242 287.06 58.1101 286.718 58.1101ZM286.757 33.3467H264.748C264.441 33.3467 263.713 33.5001 263.713 34.724V37.7107C263.713 38.8951 264.441 39.0092 264.748 39.0092L286.757 39.0486C287.06 39.0486 287.827 38.8951 287.827 37.7107V34.6846C287.827 33.5001 287.06 33.3467 286.757 33.3467Z" fill="#DE1222"/>
<path d="M322.31 33.4199H296.972C296.629 33.4199 295.862 33.534 295.862 34.7224V37.7091C295.862 38.9723 296.629 39.0864 296.972 39.0864H306.809V63.657C306.809 64.8454 307.577 64.9595 307.88 64.9595H311.402C311.748 64.9595 312.476 64.8454 312.476 63.657V39.0864H322.31C322.656 39.0864 323.419 38.9723 323.419 37.7091V34.7224C323.419 33.534 322.656 33.4199 322.31 33.4199Z" fill="#DE1222"/>
<path d="M351.973 36.9823C351.894 36.7895 351.82 36.5612 351.741 36.4078C351.131 34.4166 349.293 33 347.188 33C346.232 33 345.311 33.2676 344.548 33.8028C344.315 33.9208 344.127 34.0743 343.973 34.1884C343.399 34.6842 342.824 35.605 342.289 36.9823L331.609 63.5047C331.495 63.851 331.456 64.1933 331.534 64.4255C331.57 64.6537 331.763 65 332.376 65H336.587C337.083 65 337.464 64.6931 337.657 64.1933L339.837 58.7236H348.219C348.64 58.7236 349.026 58.5307 349.215 58.1845C349.447 57.8815 349.482 57.4604 349.368 57.0748L347.991 53.6709C347.798 53.2105 347.377 52.9036 346.881 52.9036H342.135L347.035 40.5042C347.074 40.4255 347.109 40.3861 347.109 40.3861H347.263C347.263 40.3861 347.263 40.3861 347.302 40.4648L356.794 64.1579C356.986 64.6931 357.368 65 357.903 65H362C362.614 65 362.767 64.6144 362.842 64.4255C362.92 64.1933 362.881 63.851 362.728 63.5047L351.973 36.9823Z" fill="#DE1222"/>
</svg>
